<?xml version="1.0" standalone="no"?>
<!DOCTYPE svg PUBLIC "-//W3C//DTD SVG 20010904//EN"
 "http://www.w3.org/TR/2001/REC-SVG-20010904/DTD/svg10.dtd">
<svg version="1.0" xmlns="http://www.w3.org/2000/svg"
 width="260.000000pt" height="260.000000pt" viewBox="0 0 260.000000 260.000000"
 preserveAspectRatio="xMidYMid meet">
<metadata>
Created by potrace 1.11, written by Peter Selinger 2001-2013
</metadata>
<g transform="translate(0.000000,260.000000) scale(0.100000,-0.100000)"
fill="#000000" stroke="none">
<path d="M853 2409 c-88 -18 -109 -65 -108 -237 l0 -132 -117 0 -118 0 0 -928
0 -927 788 0 787 0 2 928 2 927 -117 0 -118 0 0 140 c-1 153 -5 168 -66 213
-25 19 -47 20 -467 21 -242 0 -453 -2 -468 -5z m817 -274 l0 -95 -372 2 -371
3 0 85 c1 47 2 88 2 93 1 4 168 7 371 7 l370 0 0 -95z m-196 -481 c13 -13 16
-44 16 -185 l0 -169 168 0 c92 0 174 -5 182 -10 22 -13 27 -316 6 -345 -13
-18 -27 -19 -185 -20 l-171 0 0 -167 c0 -219 12 -206 -186 -206 -208 -1 -194
-15 -194 201 l0 173 -166 -1 c-123 0 -171 3 -185 13 -17 12 -19 27 -19 172 0
131 3 161 16 174 13 13 44 16 185 16 l169 0 0 169 c0 141 3 172 16 185 23 24
325 24 348 0z"/>
<path d="M244 2026 c-93 -23 -174 -91 -217 -184 -22 -47 -22 -49 -22 -732 l0
-685 25 -50 c53 -107 159 -179 278 -188 l62 -5 0 929 0 929 -37 -1 c-21 0 -61
-6 -89 -13z"/>
<path d="M2230 1113 l0 -930 62 4 c141 9 262 107 296 243 8 32 11 235 9 705
l-2 660 -28 56 c-32 65 -100 132 -161 159 -23 11 -72 22 -109 26 l-67 7 0
-930z"/>
</g>
</svg>
